<?xml version="1.0" encoding="UTF-8" standalone="no"?><svg xmlns="http://www.w3.org/2000/svg" xmlns:xlink="http://www.w3.org/1999/xlink" contentScriptType="application/ecmascript" contentStyleType="text/css" height="191px" preserveAspectRatio="none" style="width:372px;height:191px;" version="1.1" viewBox="0 0 372 191" width="372px" zoomAndPan="magnify"><defs><filter height="300%" id="fmgylqyjavvu4" width="300%" x="-1" y="-1"><feGaussianBlur result="blurOut" stdDeviation="2.0"/><feColorMatrix in="blurOut" result="blurOut2" type="matrix" values="0 0 0 0 0 0 0 0 0 0 0 0 0 0 0 0 0 0 .4 0"/><feOffset dx="4.0" dy="4.0" in="blurOut2" result="blurOut3"/><feBlend in="SourceGraphic" in2="blurOut3" mode="normal"/></filter></defs><g><!--cluster de.gematik.ti.epa.fdv.service.localization.spi--><polygon fill="#FFFFFF" filter="url(#fmgylqyjavvu4)" points="22,24,340,24,347,47.6094,350,47.6094,350,179,22,179,22,24" style="stroke: #000000; stroke-width: 1.5;"/><line style="stroke: #000000; stroke-width: 1.5;" x1="22" x2="347" y1="47.6094" y2="47.6094"/><text fill="#000000" font-family="sans-serif" font-size="14" font-weight="bold" lengthAdjust="spacingAndGlyphs" textLength="312" x="26" y="40.5332">de.gematik.ti.epa.fdv.service.localization.spi</text><!--class de.gematik.ti.epa.fdv.service.localization.spi.IServiceLocalizer--><rect fill="#FEFECE" filter="url(#fmgylqyjavvu4)" height="103.3438" id="de.gematik.ti.epa.fdv.service.localization.spi.IServiceLocalizer" style="stroke: #A80036; stroke-width: 1.5;" width="157" x="107.5" y="60"/><ellipse cx="135.55" cy="76" fill="#B4A7E5" rx="11" ry="11" style="stroke: #A80036; stroke-width: 1.0;"/><path d="M136.55,73 L136.55,79 L138.55,79 L139.0344,79 L139.55,79.625 L139.55,80 L139.55,80.375 L139.0344,81 L138.55,81 L132.55,81 L132.0656,81 L131.55,80.375 L131.55,80 L131.55,79.625 L132.0656,79 L132.55,79 L134.55,79 L134.55,73 L132.55,73 L132.0656,73 L131.55,72.375 L131.55,72 L131.55,71.625 L132.0656,71 L132.55,71 L138.55,71 L139.0344,71 L139.55,71.625 L139.55,72 L139.55,72.375 L139.0344,73 L138.55,73 L136.55,73 Z "/><text fill="#000000" font-family="sans-serif" font-size="12" font-style="italic" lengthAdjust="spacingAndGlyphs" textLength="96" x="152.45" y="80.9102">IServiceLocalizer</text><line style="stroke: #A80036; stroke-width: 1.5;" x1="108.5" x2="263.5" y1="92" y2="92"/><line style="stroke: #A80036; stroke-width: 1.5;" x1="108.5" x2="263.5" y1="100" y2="100"/><ellipse cx="118.5" cy="112.418" fill="#84BE84" rx="3" ry="3" style="stroke: #038048; stroke-width: 1.0;"/><text fill="#000000" font-family="sans-serif" font-size="11" font-style="italic" lengthAdjust="spacingAndGlyphs" textLength="131" x="127.5" y="115.4189">endpointURLForInterface()</text><ellipse cx="118.5" cy="126.2539" fill="#84BE84" rx="3" ry="3" style="stroke: #038048; stroke-width: 1.0;"/><text fill="#000000" font-family="sans-serif" font-size="11" font-style="italic" lengthAdjust="spacingAndGlyphs" textLength="90" x="127.5" y="129.2549">getLookupStatus()</text><ellipse cx="118.5" cy="140.0898" fill="#84BE84" rx="3" ry="3" style="stroke: #038048; stroke-width: 1.0;"/><text fill="#000000" font-family="sans-serif" font-size="11" font-style="italic" lengthAdjust="spacingAndGlyphs" textLength="41" x="127.5" y="143.0908">lookup()</text><ellipse cx="118.5" cy="153.9258" fill="#84BE84" rx="3" ry="3" style="stroke: #038048; stroke-width: 1.0;"/><text fill="#000000" font-family="sans-serif" font-size="11" font-style="italic" lengthAdjust="spacingAndGlyphs" textLength="116" x="127.5" y="156.9268">getHomeCommunityId()</text><!--
@startuml

  namespace de.gematik.ti.epa.fdv.service.localization.spi {
    interface de.gematik.ti.epa.fdv.service.localization.spi.IServiceLocalizer {
        {abstract} + endpointURLForInterface()
        {abstract} + getLookupStatus()
        {abstract} + lookup()
        {abstract} + getHomeCommunityId()
    }
  }

@enduml

PlantUML version 1.2019.06(Fri May 24 19:10:25 CEST 2019)
(APACHE source distribution)
Java Runtime: OpenJDK Runtime Environment
JVM: OpenJDK 64-Bit Server VM
Java Version: 11.0.4+10-b304.69
Operating System: Windows 7
OS Version: 6.1
Default Encoding: Cp1252
Language: de
Country: DE
--></g></svg>