<?xml version="1.0" encoding="UTF-8" standalone="no"?><svg xmlns="http://www.w3.org/2000/svg" xmlns:xlink="http://www.w3.org/1999/xlink" contentScriptType="application/ecmascript" contentStyleType="text/css" height="205px" preserveAspectRatio="none" style="width:324px;height:205px;" version="1.1" viewBox="0 0 324 205" width="324px" zoomAndPan="magnify"><defs><filter height="300%" id="f54v0xopggxng" width="300%" x="-1" y="-1"><feGaussianBlur result="blurOut" stdDeviation="2.0"/><feColorMatrix in="blurOut" result="blurOut2" type="matrix" values="0 0 0 0 0 0 0 0 0 0 0 0 0 0 0 0 0 0 .4 0"/><feOffset dx="4.0" dy="4.0" in="blurOut2" result="blurOut3"/><feBlend in="SourceGraphic" in2="blurOut3" mode="normal"/></filter></defs><g><!--cluster de.gematik.ti.epa.fdv.session.handler--><polygon fill="#FFFFFF" filter="url(#f54v0xopggxng)" points="22,24,292,24,299,47.6094,302,47.6094,302,193,22,193,22,24" style="stroke: #000000; stroke-width: 1.5;"/><line style="stroke: #000000; stroke-width: 1.5;" x1="22" x2="299" y1="47.6094" y2="47.6094"/><text fill="#000000" font-family="sans-serif" font-size="14" font-weight="bold" lengthAdjust="spacingAndGlyphs" textLength="264" x="26" y="40.5332">de.gematik.ti.epa.fdv.session.handler</text><!--class de.gematik.ti.epa.fdv.session.handler.ServiceLocalizerLoader--><rect fill="#FEFECE" filter="url(#f54v0xopggxng)" height="117.1797" id="de.gematik.ti.epa.fdv.session.handler.ServiceLocalizerLoader" style="stroke: #A80036; stroke-width: 1.5;" width="191" x="66.5" y="60"/><ellipse cx="95.45" cy="76" fill="#ADD1B2" rx="11" ry="11" style="stroke: #A80036; stroke-width: 1.0;"/><path d="M97.45,72.5 Q97.6531,72 97.8875,71.75 Q98.1219,71.5 98.3875,71.5 Q98.8563,71.5 99.1531,71.7813 Q99.45,72.0625 99.45,72.7188 L99.45,74.2813 Q99.45,74.9375 99.1688,75.2188 Q98.8875,75.5 98.45,75.5 Q98.0594,75.5 97.8094,75.3281 Q97.5594,75.1563 97.45,74.7031 Q97.4031,74.3906 97.2313,74.2188 Q96.9188,73.8906 96.3563,73.7031 Q95.7938,73.5 95.2313,73.5 Q94.5281,73.5 93.9344,73.7813 Q93.3563,74.0625 92.9031,74.6875 Q92.45,75.3125 92.45,76.1719 L92.45,77.0938 Q92.45,78.125 93.2938,78.8125 Q94.1375,79.5 95.6375,79.5 Q96.5281,79.5 97.1531,79.2969 Q97.5125,79.1875 97.9188,78.8281 Q98.1844,78.625 98.325,78.5625 Q98.4656,78.5 98.6375,78.5 Q98.9656,78.5 99.2,78.7656 Q99.45,79.0156 99.45,79.375 Q99.45,79.7188 99.1063,80.125 Q98.6063,80.7188 97.8094,81.0469 Q96.7625,81.5 95.4813,81.5 Q93.9813,81.5 92.7781,80.9063 Q91.8094,80.4375 91.1219,79.4219 Q90.45,78.4063 90.45,77.2031 L90.45,76.1094 Q90.45,74.8594 91.0438,73.7656 Q91.6531,72.6719 92.7,72.0938 Q93.7625,71.5 94.95,71.5 Q95.6688,71.5 96.2938,71.75 Q96.9188,72 97.45,72.5 Z "/><text fill="#000000" font-family="sans-serif" font-size="12" lengthAdjust="spacingAndGlyphs" textLength="128" x="112.55" y="80.9102">ServiceLocalizerLoader</text><line style="stroke: #A80036; stroke-width: 1.5;" x1="67.5" x2="256.5" y1="92" y2="92"/><rect fill="none" height="6" style="stroke: #C82930; stroke-width: 1.0;" width="6" x="74.5" y="101.418"/><text fill="#000000" font-family="sans-serif" font-size="11" lengthAdjust="spacingAndGlyphs" text-decoration="underline" textLength="165" x="86.5" y="107.4189">instance : ServiceLocalizerLoader</text><line style="stroke: #A80036; stroke-width: 1.5;" x1="67.5" x2="256.5" y1="113.8359" y2="113.8359"/><ellipse cx="77.5" cy="126.2539" fill="#84BE84" rx="3" ry="3" style="stroke: #038048; stroke-width: 1.0;"/><text fill="#000000" font-family="sans-serif" font-size="11" lengthAdjust="spacingAndGlyphs" text-decoration="underline" textLength="64" x="86.5" y="129.2549">getInstance()</text><ellipse cx="77.5" cy="140.0898" fill="#84BE84" rx="3" ry="3" style="stroke: #038048; stroke-width: 1.0;"/><text fill="#000000" font-family="sans-serif" font-size="11" lengthAdjust="spacingAndGlyphs" textLength="66" x="86.5" y="143.0908">getServices()</text><ellipse cx="77.5" cy="153.9258" fill="#84BE84" rx="3" ry="3" style="stroke: #038048; stroke-width: 1.0;"/><text fill="#000000" font-family="sans-serif" font-size="11" lengthAdjust="spacingAndGlyphs" textLength="132" x="86.5" y="156.9268">serviceLocalizerAvailable()</text><rect fill="#F24D5C" height="6" style="stroke: #C82930; stroke-width: 1.0;" width="6" x="74.5" y="164.7617"/><text fill="#000000" font-family="sans-serif" font-size="11" lengthAdjust="spacingAndGlyphs" textLength="123" x="86.5" y="170.7627">ServiceLocalizerLoader()</text><!--
@startuml

  namespace de.gematik.ti.epa.fdv.session.handler {
    class de.gematik.ti.epa.fdv.session.handler.ServiceLocalizerLoader {
        {static} - instance : ServiceLocalizerLoader
        {static} + getInstance()
        + getServices()
        + serviceLocalizerAvailable()
        - ServiceLocalizerLoader()
    }
  }


@enduml

PlantUML version 1.2019.06(Fri May 24 19:10:25 CEST 2019)
(APACHE source distribution)
Java Runtime: OpenJDK Runtime Environment
JVM: OpenJDK 64-Bit Server VM
Java Version: 11.0.4+10-b304.69
Operating System: Windows 7
OS Version: 6.1
Default Encoding: Cp1252
Language: de
Country: DE
--></g></svg>