<?xml version="1.0" encoding="UTF-8" standalone="no"?><svg xmlns="http://www.w3.org/2000/svg" xmlns:xlink="http://www.w3.org/1999/xlink" contentScriptType="application/ecmascript" contentStyleType="text/css" height="150px" preserveAspectRatio="none" style="width:342px;height:150px;" version="1.1" viewBox="0 0 342 150" width="342px" zoomAndPan="magnify"><defs><filter height="300%" id="fj4ip67xi7s9z" width="300%" x="-1" y="-1"><feGaussianBlur result="blurOut" stdDeviation="2.0"/><feColorMatrix in="blurOut" result="blurOut2" type="matrix" values="0 0 0 0 0 0 0 0 0 0 0 0 0 0 0 0 0 0 .4 0"/><feOffset dx="4.0" dy="4.0" in="blurOut2" result="blurOut3"/><feBlend in="SourceGraphic" in2="blurOut3" mode="normal"/></filter></defs><g><!--cluster de.gematik.ti.epa.fdv.key.access.control--><polygon fill="#FFFFFF" filter="url(#fj4ip67xi7s9z)" points="22,24,310,24,317,47.6094,320,47.6094,320,138,22,138,22,24" style="stroke: #000000; stroke-width: 1.5;"/><line style="stroke: #000000; stroke-width: 1.5;" x1="22" x2="317" y1="47.6094" y2="47.6094"/><text fill="#000000" font-family="sans-serif" font-size="14" font-weight="bold" lengthAdjust="spacingAndGlyphs" textLength="282" x="26" y="40.5332">de.gematik.ti.epa.fdv.key.access.control</text><!--class de.gematik.ti.epa.fdv.key.access.control.DummyClass--><rect fill="#FEFECE" filter="url(#fj4ip67xi7s9z)" height="61.8359" id="de.gematik.ti.epa.fdv.key.access.control.DummyClass" style="stroke: #A80036; stroke-width: 1.5;" width="108" x="117" y="60"/><ellipse cx="132" cy="76" fill="#ADD1B2" rx="11" ry="11" style="stroke: #A80036; stroke-width: 1.0;"/><path d="M134,72.5 Q134.2031,72 134.4375,71.75 Q134.6719,71.5 134.9375,71.5 Q135.4063,71.5 135.7031,71.7813 Q136,72.0625 136,72.7188 L136,74.2813 Q136,74.9375 135.7188,75.2188 Q135.4375,75.5 135,75.5 Q134.6094,75.5 134.3594,75.3281 Q134.1094,75.1563 134,74.7031 Q133.9531,74.3906 133.7813,74.2188 Q133.4688,73.8906 132.9063,73.7031 Q132.3438,73.5 131.7813,73.5 Q131.0781,73.5 130.4844,73.7813 Q129.9063,74.0625 129.4531,74.6875 Q129,75.3125 129,76.1719 L129,77.0938 Q129,78.125 129.8438,78.8125 Q130.6875,79.5 132.1875,79.5 Q133.0781,79.5 133.7031,79.2969 Q134.0625,79.1875 134.4688,78.8281 Q134.7344,78.625 134.875,78.5625 Q135.0156,78.5 135.1875,78.5 Q135.5156,78.5 135.75,78.7656 Q136,79.0156 136,79.375 Q136,79.7188 135.6563,80.125 Q135.1563,80.7188 134.3594,81.0469 Q133.3125,81.5 132.0313,81.5 Q130.5313,81.5 129.3281,80.9063 Q128.3594,80.4375 127.6719,79.4219 Q127,78.4063 127,77.2031 L127,76.1094 Q127,74.8594 127.5938,73.7656 Q128.2031,72.6719 129.25,72.0938 Q130.3125,71.5 131.5,71.5 Q132.2188,71.5 132.8438,71.75 Q133.4688,72 134,72.5 Z "/><text fill="#000000" font-family="sans-serif" font-size="12" lengthAdjust="spacingAndGlyphs" textLength="76" x="146" y="80.9102">DummyClass</text><line style="stroke: #A80036; stroke-width: 1.5;" x1="118" x2="224" y1="92" y2="92"/><line style="stroke: #A80036; stroke-width: 1.5;" x1="118" x2="224" y1="100" y2="100"/><ellipse cx="128" cy="112.418" fill="#84BE84" rx="3" ry="3" style="stroke: #038048; stroke-width: 1.0;"/><text fill="#000000" font-family="sans-serif" font-size="11" lengthAdjust="spacingAndGlyphs" textLength="47" x="137" y="115.4189">doSome()</text><!--
@startuml



  namespace de.gematik.ti.epa.fdv.key.access.control {
    class de.gematik.ti.epa.fdv.key.access.control.DummyClass {
        + doSome()
    }
  }











@enduml

PlantUML version 1.2019.06(Fri May 24 19:10:25 CEST 2019)
(APACHE source distribution)
Java Runtime: OpenJDK Runtime Environment
JVM: OpenJDK 64-Bit Server VM
Java Version: 11.0.4+10-b304.69
Operating System: Windows 7
OS Version: 6.1
Default Encoding: Cp1252
Language: de
Country: DE
--></g></svg>