<?xml version="1.0" encoding="UTF-8" standalone="no"?><svg xmlns="http://www.w3.org/2000/svg" xmlns:xlink="http://www.w3.org/1999/xlink" contentScriptType="application/ecmascript" contentStyleType="text/css" height="302px" preserveAspectRatio="none" style="width:415px;height:302px;" version="1.1" viewBox="0 0 415 302" width="415px" zoomAndPan="magnify"><defs><filter height="300%" id="f18jh42s1fbjnq" width="300%" x="-1" y="-1"><feGaussianBlur result="blurOut" stdDeviation="2.0"/><feColorMatrix in="blurOut" result="blurOut2" type="matrix" values="0 0 0 0 0 0 0 0 0 0 0 0 0 0 0 0 0 0 .4 0"/><feOffset dx="4.0" dy="4.0" in="blurOut2" result="blurOut3"/><feBlend in="SourceGraphic" in2="blurOut3" mode="normal"/></filter></defs><g><!--cluster de.gematik.ti.epa.fdv.service.localization.api--><polygon fill="#FFFFFF" filter="url(#f18jh42s1fbjnq)" points="22,24,340,24,347,47.6094,393,47.6094,393,290,22,290,22,24" style="stroke: #000000; stroke-width: 1.5;"/><line style="stroke: #000000; stroke-width: 1.5;" x1="22" x2="347" y1="47.6094" y2="47.6094"/><text fill="#000000" font-family="sans-serif" font-size="14" font-weight="bold" lengthAdjust="spacingAndGlyphs" textLength="312" x="26" y="40.5332">de.gematik.ti.epa.fdv.service.localization.api</text><!--class de.gematik.ti.epa.fdv.service.localization.api.LookupStatus--><rect fill="#FEFECE" filter="url(#f18jh42s1fbjnq)" height="117.1797" id="de.gematik.ti.epa.fdv.service.localization.api.LookupStatus" style="stroke: #A80036; stroke-width: 1.5;" width="126" x="251" y="108.5"/><ellipse cx="274.1" cy="124.5" fill="#EB937F" rx="11" ry="11" style="stroke: #A80036; stroke-width: 1.0;"/><path d="M272.6,125.5 L272.6,127.5 L276.6,127.5 L276.6,126.5 L276.6,126.0156 L277.225,125.5 L277.6,125.5 L277.975,125.5 L278.6,126.0156 L278.6,126.5 L278.6,129.5 L270.6,129.5 L270.1156,129.5 L269.6,128.875 L269.6,128.5 L269.6,128.125 L270.1156,127.5 L270.6,127.5 L270.6,127.5 L270.6,121.5 L270.6,121.5 L270.1156,121.5 L269.6,120.875 L269.6,120.5 L269.6,120.125 L270.1156,119.5 L270.6,119.5 L278.6,119.5 L278.6,122.5 L278.6,122.9844 L277.975,123.5 L277.6,123.5 L277.225,123.5 L276.6,122.9844 L276.6,122.5 L276.6,121.5 L272.6,121.5 L272.6,123.5 L273.6,123.5 L273.6,123.0156 L273.6,123.0156 L274.225,122.5 L274.6,122.5 L274.975,122.5 L275.6,123.0156 L275.6,123.5 L275.6,125.5 L275.6,125.9844 L274.975,126.5 L274.975,126.5 L274.6,126.5 L274.225,126.5 L273.6,125.9844 L273.6,125.9844 L273.6,125.5 L272.6,125.5 Z "/><text fill="#000000" font-family="sans-serif" font-size="12" lengthAdjust="spacingAndGlyphs" textLength="76" x="289.9" y="129.4102">LookupStatus</text><line style="stroke: #A80036; stroke-width: 1.5;" x1="252" x2="376" y1="140.5" y2="140.5"/><text fill="#000000" font-family="sans-serif" font-size="11" lengthAdjust="spacingAndGlyphs" textLength="35" x="257" y="155.9189">ERROR</text><text fill="#000000" font-family="sans-serif" font-size="11" lengthAdjust="spacingAndGlyphs" textLength="71" x="257" y="169.7549">IN_PROGRESS</text><text fill="#000000" font-family="sans-serif" font-size="11" lengthAdjust="spacingAndGlyphs" textLength="74" x="257" y="183.5908">NOT_STARTED</text><text fill="#000000" font-family="sans-serif" font-size="11" lengthAdjust="spacingAndGlyphs" textLength="114" x="257" y="197.4268">MISSING_TXT_RECORD</text><text fill="#000000" font-family="sans-serif" font-size="11" lengthAdjust="spacingAndGlyphs" textLength="48" x="257" y="211.2627">SUCCESS</text><line style="stroke: #A80036; stroke-width: 1.5;" x1="252" x2="376" y1="217.6797" y2="217.6797"/><!--class de.gematik.ti.epa.fdv.service.localization.api.ServiceInterfaceName--><rect fill="#FEFECE" filter="url(#f18jh42s1fbjnq)" height="214.0313" id="de.gematik.ti.epa.fdv.service.localization.api.ServiceInterfaceName" style="stroke: #A80036; stroke-width: 1.5;" width="178" x="38" y="60"/><ellipse cx="64.25" cy="76" fill="#EB937F" rx="11" ry="11" style="stroke: #A80036; stroke-width: 1.0;"/><path d="M62.75,77 L62.75,79 L66.75,79 L66.75,78 L66.75,77.5156 L67.375,77 L67.75,77 L68.125,77 L68.75,77.5156 L68.75,78 L68.75,81 L60.75,81 L60.2656,81 L59.75,80.375 L59.75,80 L59.75,79.625 L60.2656,79 L60.75,79 L60.75,79 L60.75,73 L60.75,73 L60.2656,73 L59.75,72.375 L59.75,72 L59.75,71.625 L60.2656,71 L60.75,71 L68.75,71 L68.75,74 L68.75,74.4844 L68.125,75 L67.75,75 L67.375,75 L66.75,74.4844 L66.75,74 L66.75,73 L62.75,73 L62.75,75 L63.75,75 L63.75,74.5156 L63.75,74.5156 L64.375,74 L64.75,74 L65.125,74 L65.75,74.5156 L65.75,75 L65.75,77 L65.75,77.4844 L65.125,78 L65.125,78 L64.75,78 L64.375,78 L63.75,77.4844 L63.75,77.4844 L63.75,77 L62.75,77 Z "/><text fill="#000000" font-family="sans-serif" font-size="12" lengthAdjust="spacingAndGlyphs" textLength="121" x="80.75" y="80.9102">ServiceInterfaceName</text><line style="stroke: #A80036; stroke-width: 1.5;" x1="39" x2="215" y1="92" y2="92"/><text fill="#000000" font-family="sans-serif" font-size="11" lengthAdjust="spacingAndGlyphs" textLength="143" x="44" y="107.4189">IAccountManagementInsurant</text><text fill="#000000" font-family="sans-serif" font-size="11" lengthAdjust="spacingAndGlyphs" textLength="110" x="44" y="121.2549">IAuthenticationInsurant</text><text fill="#000000" font-family="sans-serif" font-size="11" lengthAdjust="spacingAndGlyphs" textLength="105" x="44" y="135.0908">IAuthorizationInsurant</text><text fill="#000000" font-family="sans-serif" font-size="11" lengthAdjust="spacingAndGlyphs" textLength="166" x="44" y="148.9268">IAuthorizationManagementInsurant</text><text fill="#000000" font-family="sans-serif" font-size="11" lengthAdjust="spacingAndGlyphs" textLength="151" x="44" y="162.7627">IDocumentManagementConnect</text><text fill="#000000" font-family="sans-serif" font-size="11" lengthAdjust="spacingAndGlyphs" textLength="150" x="44" y="176.5986">IDocumentManagementInsurant</text><text fill="#000000" font-family="sans-serif" font-size="11" lengthAdjust="spacingAndGlyphs" textLength="63" x="44" y="190.4346">IGetKeySgd1</text><text fill="#000000" font-family="sans-serif" font-size="11" lengthAdjust="spacingAndGlyphs" textLength="63" x="44" y="204.2705">IGetKeySgd2</text><text fill="#000000" font-family="sans-serif" font-size="11" lengthAdjust="spacingAndGlyphs" textLength="114" x="44" y="218.1064">IOCSPStatusInformation</text><text fill="#000000" font-family="sans-serif" font-size="11" lengthAdjust="spacingAndGlyphs" textLength="104" x="44" y="231.9424">IProxyDirectoryQuery</text><text fill="#000000" font-family="sans-serif" font-size="11" lengthAdjust="spacingAndGlyphs" textLength="61" x="44" y="245.7783">moduleName</text><text fill="#000000" font-family="sans-serif" font-size="11" lengthAdjust="spacingAndGlyphs" textLength="100" x="44" y="259.6143">serviceLocatorName</text><line style="stroke: #A80036; stroke-width: 1.5;" x1="39" x2="215" y1="266.0313" y2="266.0313"/><!--
@startuml

  namespace de.gematik.ti.epa.fdv.service.localization.api {
    enum LookupStatus {
      ERROR
      IN_PROGRESS
      NOT_STARTED
      MISSING_TXT_RECORD
      SUCCESS
    }
  }


  namespace de.gematik.ti.epa.fdv.service.localization.api {
    enum ServiceInterfaceName {
      IAccountManagementInsurant
      IAuthenticationInsurant
      IAuthorizationInsurant
      IAuthorizationManagementInsurant
      IDocumentManagementConnect
      IDocumentManagementInsurant
      IGetKeySgd1
      IGetKeySgd2
      IOCSPStatusInformation
      IProxyDirectoryQuery
      moduleName
      serviceLocatorName
    }
  }


@enduml

PlantUML version 1.2019.06(Fri May 24 19:10:25 CEST 2019)
(APACHE source distribution)
Java Runtime: OpenJDK Runtime Environment
JVM: OpenJDK 64-Bit Server VM
Java Version: 11.0.4+10-b304.69
Operating System: Windows 7
OS Version: 6.1
Default Encoding: Cp1252
Language: de
Country: DE
--></g></svg>