<?xml version="1.0" encoding="UTF-8" standalone="no"?><svg xmlns="http://www.w3.org/2000/svg" xmlns:xlink="http://www.w3.org/1999/xlink" contentScriptType="application/ecmascript" contentStyleType="text/css" height="150px" preserveAspectRatio="none" style="width:303px;height:150px;" version="1.1" viewBox="0 0 303 150" width="303px" zoomAndPan="magnify"><defs><filter height="300%" id="f79yb2ymsj7xn" width="300%" x="-1" y="-1"><feGaussianBlur result="blurOut" stdDeviation="2.0"/><feColorMatrix in="blurOut" result="blurOut2" type="matrix" values="0 0 0 0 0 0 0 0 0 0 0 0 0 0 0 0 0 0 .4 0"/><feOffset dx="4.0" dy="4.0" in="blurOut2" result="blurOut3"/><feBlend in="SourceGraphic" in2="blurOut3" mode="normal"/></filter></defs><g><!--cluster de.gematik.ti.epa.fdv.authorization--><polygon fill="#FFFFFF" filter="url(#f79yb2ymsj7xn)" points="22,24,271,24,278,47.6094,281,47.6094,281,138,22,138,22,24" style="stroke: #000000; stroke-width: 1.5;"/><line style="stroke: #000000; stroke-width: 1.5;" x1="22" x2="278" y1="47.6094" y2="47.6094"/><text fill="#000000" font-family="sans-serif" font-size="14" font-weight="bold" lengthAdjust="spacingAndGlyphs" textLength="243" x="26" y="40.5332">de.gematik.ti.epa.fdv.authorization</text><!--class de.gematik.ti.epa.fdv.authorization.DummyClass--><rect fill="#FEFECE" filter="url(#f79yb2ymsj7xn)" height="61.8359" id="de.gematik.ti.epa.fdv.authorization.DummyClass" style="stroke: #A80036; stroke-width: 1.5;" width="108" x="97" y="60"/><ellipse cx="112" cy="76" fill="#ADD1B2" rx="11" ry="11" style="stroke: #A80036; stroke-width: 1.0;"/><path d="M114,72.5 Q114.2031,72 114.4375,71.75 Q114.6719,71.5 114.9375,71.5 Q115.4063,71.5 115.7031,71.7813 Q116,72.0625 116,72.7188 L116,74.2813 Q116,74.9375 115.7188,75.2188 Q115.4375,75.5 115,75.5 Q114.6094,75.5 114.3594,75.3281 Q114.1094,75.1563 114,74.7031 Q113.9531,74.3906 113.7813,74.2188 Q113.4688,73.8906 112.9063,73.7031 Q112.3438,73.5 111.7813,73.5 Q111.0781,73.5 110.4844,73.7813 Q109.9063,74.0625 109.4531,74.6875 Q109,75.3125 109,76.1719 L109,77.0938 Q109,78.125 109.8438,78.8125 Q110.6875,79.5 112.1875,79.5 Q113.0781,79.5 113.7031,79.2969 Q114.0625,79.1875 114.4688,78.8281 Q114.7344,78.625 114.875,78.5625 Q115.0156,78.5 115.1875,78.5 Q115.5156,78.5 115.75,78.7656 Q116,79.0156 116,79.375 Q116,79.7188 115.6563,80.125 Q115.1563,80.7188 114.3594,81.0469 Q113.3125,81.5 112.0313,81.5 Q110.5313,81.5 109.3281,80.9063 Q108.3594,80.4375 107.6719,79.4219 Q107,78.4063 107,77.2031 L107,76.1094 Q107,74.8594 107.5938,73.7656 Q108.2031,72.6719 109.25,72.0938 Q110.3125,71.5 111.5,71.5 Q112.2188,71.5 112.8438,71.75 Q113.4688,72 114,72.5 Z "/><text fill="#000000" font-family="sans-serif" font-size="12" lengthAdjust="spacingAndGlyphs" textLength="76" x="126" y="80.9102">DummyClass</text><line style="stroke: #A80036; stroke-width: 1.5;" x1="98" x2="204" y1="92" y2="92"/><line style="stroke: #A80036; stroke-width: 1.5;" x1="98" x2="204" y1="100" y2="100"/><ellipse cx="108" cy="112.418" fill="#84BE84" rx="3" ry="3" style="stroke: #038048; stroke-width: 1.0;"/><text fill="#000000" font-family="sans-serif" font-size="11" lengthAdjust="spacingAndGlyphs" textLength="47" x="117" y="115.4189">doSome()</text><!--
@startuml



  namespace de.gematik.ti.epa.fdv.authorization {
    class de.gematik.ti.epa.fdv.authorization.DummyClass {
        + doSome()
    }
  }











@enduml

PlantUML version 1.2019.06(Fri May 24 19:10:25 CEST 2019)
(APACHE source distribution)
Java Runtime: OpenJDK Runtime Environment
JVM: OpenJDK 64-Bit Server VM
Java Version: 11.0.4+10-b304.69
Operating System: Windows 7
OS Version: 6.1
Default Encoding: Cp1252
Language: de
Country: DE
--></g></svg>