<?xml version="1.0" encoding="UTF-8" standalone="no"?><svg xmlns="http://www.w3.org/2000/svg" xmlns:xlink="http://www.w3.org/1999/xlink" contentScriptType="application/ecmascript" contentStyleType="text/css" height="419px" preserveAspectRatio="none" style="width:1036px;height:419px;" version="1.1" viewBox="0 0 1036 419" width="1036px" zoomAndPan="magnify"><defs><filter height="300%" id="f1t960jv48n4xe" width="300%" x="-1" y="-1"><feGaussianBlur result="blurOut" stdDeviation="2.0"/><feColorMatrix in="blurOut" result="blurOut2" type="matrix" values="0 0 0 0 0 0 0 0 0 0 0 0 0 0 0 0 0 0 .4 0"/><feOffset dx="4.0" dy="4.0" in="blurOut2" result="blurOut3"/><feBlend in="SourceGraphic" in2="blurOut3" mode="normal"/></filter></defs><g><!--cluster de.gematik.ti.epa.fdv.authentication.service.provider.provider.api--><polygon fill="#FFFFFF" filter="url(#f1t960jv48n4xe)" points="22,24,492,24,499,47.6094,510,47.6094,510,407,22,407,22,24" style="stroke: #000000; stroke-width: 1.5;"/><line style="stroke: #000000; stroke-width: 1.5;" x1="22" x2="499" y1="47.6094" y2="47.6094"/><text fill="#000000" font-family="sans-serif" font-size="14" font-weight="bold" lengthAdjust="spacingAndGlyphs" textLength="464" x="26" y="40.5332">de.gematik.ti.epa.fdv.authentication.service.provider.provider.api</text><!--cluster de.gematik.ti.epa.fdv.authentication.service.provider.provider.api.entities--><polygon fill="#FFFFFF" filter="url(#f1t960jv48n4xe)" points="308,157,367,157,374,180.6094,486,180.6094,486,383,308,383,308,157" style="stroke: #000000; stroke-width: 1.5;"/><line style="stroke: #000000; stroke-width: 1.5;" x1="308" x2="374" y1="180.6094" y2="180.6094"/><text fill="#000000" font-family="sans-serif" font-size="14" font-weight="bold" lengthAdjust="spacingAndGlyphs" textLength="53" x="312" y="173.5332">entities</text><!--cluster de.gematik.ti.epa.fdv.authentication.service.provider.provider.spi--><polygon fill="#FFFFFF" filter="url(#f1t960jv48n4xe)" points="534,24,1004,24,1011,47.6094,1014,47.6094,1014,124,534,124,534,24" style="stroke: #000000; stroke-width: 1.5;"/><line style="stroke: #000000; stroke-width: 1.5;" x1="534" x2="1011" y1="47.6094" y2="47.6094"/><text fill="#000000" font-family="sans-serif" font-size="14" font-weight="bold" lengthAdjust="spacingAndGlyphs" textLength="464" x="538" y="40.5332">de.gematik.ti.epa.fdv.authentication.service.provider.provider.spi</text><!--class de.gematik.ti.epa.fdv.authentication.service.provider.provider.api.IAuthenticationResult--><rect fill="#FEFECE" filter="url(#f1t960jv48n4xe)" height="48" id="de.gematik.ti.epa.fdv.authentication.service.provider.provider.api.IAuthenticationResult" style="stroke: #A80036; stroke-width: 1.5;" width="149" x="344.5" y="60"/><ellipse cx="359.5" cy="76" fill="#B4A7E5" rx="11" ry="11" style="stroke: #A80036; stroke-width: 1.0;"/><path d="M360.5,73 L360.5,79 L362.5,79 L362.9844,79 L363.5,79.625 L363.5,80 L363.5,80.375 L362.9844,81 L362.5,81 L356.5,81 L356.0156,81 L355.5,80.375 L355.5,80 L355.5,79.625 L356.0156,79 L356.5,79 L358.5,79 L358.5,73 L356.5,73 L356.0156,73 L355.5,72.375 L355.5,72 L355.5,71.625 L356.0156,71 L356.5,71 L362.5,71 L362.9844,71 L363.5,71.625 L363.5,72 L363.5,72.375 L362.9844,73 L362.5,73 L360.5,73 Z "/><text fill="#000000" font-family="sans-serif" font-size="12" font-style="italic" lengthAdjust="spacingAndGlyphs" textLength="117" x="373.5" y="80.9102">IAuthenticationResult</text><line style="stroke: #A80036; stroke-width: 1.5;" x1="345.5" x2="492.5" y1="92" y2="92"/><line style="stroke: #A80036; stroke-width: 1.5;" x1="345.5" x2="492.5" y1="100" y2="100"/><!--class de.gematik.ti.epa.fdv.authentication.service.provider.provider.api.IAuthenticator--><rect fill="#FEFECE" filter="url(#f1t960jv48n4xe)" height="48" id="de.gematik.ti.epa.fdv.authentication.service.provider.provider.api.IAuthenticator" style="stroke: #A80036; stroke-width: 1.5;" width="108" x="201" y="60"/><ellipse cx="216" cy="76" fill="#B4A7E5" rx="11" ry="11" style="stroke: #A80036; stroke-width: 1.0;"/><path d="M217,73 L217,79 L219,79 L219.4844,79 L220,79.625 L220,80 L220,80.375 L219.4844,81 L219,81 L213,81 L212.5156,81 L212,80.375 L212,80 L212,79.625 L212.5156,79 L213,79 L215,79 L215,73 L213,73 L212.5156,73 L212,72.375 L212,72 L212,71.625 L212.5156,71 L213,71 L219,71 L219.4844,71 L220,71.625 L220,72 L220,72.375 L219.4844,73 L219,73 L217,73 Z "/><text fill="#000000" font-family="sans-serif" font-size="12" font-style="italic" lengthAdjust="spacingAndGlyphs" textLength="76" x="230" y="80.9102">IAuthenticator</text><line style="stroke: #A80036; stroke-width: 1.5;" x1="202" x2="308" y1="92" y2="92"/><line style="stroke: #A80036; stroke-width: 1.5;" x1="202" x2="308" y1="100" y2="100"/><!--class de.gematik.ti.epa.fdv.authentication.service.provider.provider.api.ICertificateHolder--><rect fill="#FEFECE" filter="url(#f1t960jv48n4xe)" height="48" id="de.gematik.ti.epa.fdv.authentication.service.provider.provider.api.ICertificateHolder" style="stroke: #A80036; stroke-width: 1.5;" width="128" x="38" y="60"/><ellipse cx="53" cy="76" fill="#B4A7E5" rx="11" ry="11" style="stroke: #A80036; stroke-width: 1.0;"/><path d="M54,73 L54,79 L56,79 L56.4844,79 L57,79.625 L57,80 L57,80.375 L56.4844,81 L56,81 L50,81 L49.5156,81 L49,80.375 L49,80 L49,79.625 L49.5156,79 L50,79 L52,79 L52,73 L50,73 L49.5156,73 L49,72.375 L49,72 L49,71.625 L49.5156,71 L50,71 L56,71 L56.4844,71 L57,71.625 L57,72 L57,72.375 L56.4844,73 L56,73 L54,73 Z "/><text fill="#000000" font-family="sans-serif" font-size="12" font-style="italic" lengthAdjust="spacingAndGlyphs" textLength="96" x="67" y="80.9102">ICertificateHolder</text><line style="stroke: #A80036; stroke-width: 1.5;" x1="39" x2="165" y1="92" y2="92"/><line style="stroke: #A80036; stroke-width: 1.5;" x1="39" x2="165" y1="100" y2="100"/><!--class de.gematik.ti.epa.fdv.authentication.service.provider.provider.api.entities.AuthenticationResult--><rect fill="#FEFECE" filter="url(#f1t960jv48n4xe)" height="48" id="de.gematik.ti.epa.fdv.authentication.service.provider.provider.api.entities.AuthenticationResult" style="stroke: #A80036; stroke-width: 1.5;" width="145" x="324.5" y="193"/><ellipse cx="339.5" cy="209" fill="#ADD1B2" rx="11" ry="11" style="stroke: #A80036; stroke-width: 1.0;"/><path d="M341.5,205.5 Q341.7031,205 341.9375,204.75 Q342.1719,204.5 342.4375,204.5 Q342.9063,204.5 343.2031,204.7813 Q343.5,205.0625 343.5,205.7188 L343.5,207.2813 Q343.5,207.9375 343.2188,208.2188 Q342.9375,208.5 342.5,208.5 Q342.1094,208.5 341.8594,208.3281 Q341.6094,208.1563 341.5,207.7031 Q341.4531,207.3906 341.2813,207.2188 Q340.9688,206.8906 340.4063,206.7031 Q339.8438,206.5 339.2813,206.5 Q338.5781,206.5 337.9844,206.7813 Q337.4063,207.0625 336.9531,207.6875 Q336.5,208.3125 336.5,209.1719 L336.5,210.0938 Q336.5,211.125 337.3438,211.8125 Q338.1875,212.5 339.6875,212.5 Q340.5781,212.5 341.2031,212.2969 Q341.5625,212.1875 341.9688,211.8281 Q342.2344,211.625 342.375,211.5625 Q342.5156,211.5 342.6875,211.5 Q343.0156,211.5 343.25,211.7656 Q343.5,212.0156 343.5,212.375 Q343.5,212.7188 343.1563,213.125 Q342.6563,213.7188 341.8594,214.0469 Q340.8125,214.5 339.5313,214.5 Q338.0313,214.5 336.8281,213.9063 Q335.8594,213.4375 335.1719,212.4219 Q334.5,211.4063 334.5,210.2031 L334.5,209.1094 Q334.5,207.8594 335.0938,206.7656 Q335.7031,205.6719 336.75,205.0938 Q337.8125,204.5 339,204.5 Q339.7188,204.5 340.3438,204.75 Q340.9688,205 341.5,205.5 Z "/><text fill="#000000" font-family="sans-serif" font-size="12" lengthAdjust="spacingAndGlyphs" textLength="113" x="353.5" y="213.9102">AuthenticationResult</text><line style="stroke: #A80036; stroke-width: 1.5;" x1="325.5" x2="468.5" y1="225" y2="225"/><line style="stroke: #A80036; stroke-width: 1.5;" x1="325.5" x2="468.5" y1="233" y2="233"/><!--class de.gematik.ti.epa.fdv.authentication.service.provider.provider.api.entities.AuthenticationState--><rect fill="#FEFECE" filter="url(#f1t960jv48n4xe)" height="48" id="de.gematik.ti.epa.fdv.authentication.service.provider.provider.api.entities.AuthenticationState" style="stroke: #A80036; stroke-width: 1.5;" width="137" x="328.5" y="319"/><ellipse cx="343.5" cy="335" fill="#EB937F" rx="11" ry="11" style="stroke: #A80036; stroke-width: 1.0;"/><path d="M342,336 L342,338 L346,338 L346,337 L346,336.5156 L346.625,336 L347,336 L347.375,336 L348,336.5156 L348,337 L348,340 L340,340 L339.5156,340 L339,339.375 L339,339 L339,338.625 L339.5156,338 L340,338 L340,338 L340,332 L340,332 L339.5156,332 L339,331.375 L339,331 L339,330.625 L339.5156,330 L340,330 L348,330 L348,333 L348,333.4844 L347.375,334 L347,334 L346.625,334 L346,333.4844 L346,333 L346,332 L342,332 L342,334 L343,334 L343,333.5156 L343,333.5156 L343.625,333 L344,333 L344.375,333 L345,333.5156 L345,334 L345,336 L345,336.4844 L344.375,337 L344.375,337 L344,337 L343.625,337 L343,336.4844 L343,336.4844 L343,336 L342,336 Z "/><text fill="#000000" font-family="sans-serif" font-size="12" lengthAdjust="spacingAndGlyphs" textLength="105" x="357.5" y="339.9102">AuthenticationState</text><line style="stroke: #A80036; stroke-width: 1.5;" x1="329.5" x2="464.5" y1="351" y2="351"/><line style="stroke: #A80036; stroke-width: 1.5;" x1="329.5" x2="464.5" y1="359" y2="359"/><!--class de.gematik.ti.epa.fdv.authentication.service.provider.provider.spi.IAuthenticationProvider--><rect fill="#FEFECE" filter="url(#f1t960jv48n4xe)" height="48" id="de.gematik.ti.epa.fdv.authentication.service.provider.provider.spi.IAuthenticationProvider" style="stroke: #A80036; stroke-width: 1.5;" width="160" x="694" y="60"/><ellipse cx="709" cy="76" fill="#B4A7E5" rx="11" ry="11" style="stroke: #A80036; stroke-width: 1.0;"/><path d="M710,73 L710,79 L712,79 L712.4844,79 L713,79.625 L713,80 L713,80.375 L712.4844,81 L712,81 L706,81 L705.5156,81 L705,80.375 L705,80 L705,79.625 L705.5156,79 L706,79 L708,79 L708,73 L706,73 L705.5156,73 L705,72.375 L705,72 L705,71.625 L705.5156,71 L706,71 L712,71 L712.4844,71 L713,71.625 L713,72 L713,72.375 L712.4844,73 L712,73 L710,73 Z "/><text fill="#000000" font-family="sans-serif" font-size="12" font-style="italic" lengthAdjust="spacingAndGlyphs" textLength="128" x="723" y="80.9102">IAuthenticationProvider</text><line style="stroke: #A80036; stroke-width: 1.5;" x1="695" x2="853" y1="92" y2="92"/><line style="stroke: #A80036; stroke-width: 1.5;" x1="695" x2="853" y1="100" y2="100"/><!--link de.gematik.ti.epa.fdv.authentication.service.provider.provider.api.IAuthenticationResult to de.gematik.ti.epa.fdv.authentication.service.provider.provider.api.entities.AuthenticationResult--><path d="M411.777,128.013 C408.161,149.544 403.925,174.766 400.918,192.672 " fill="none" id="de.gematik.ti.epa.fdv.authentication.service.provider.provider.api.IAuthenticationResult-de.gematik.ti.epa.fdv.authentication.service.provider.provider.api.entities.AuthenticationResult" style="stroke: #A80036; stroke-width: 1.0; stroke-dasharray: 7.0,7.0;"/><polygon fill="none" points="404.902,126.683,415.117,108.119,418.708,129.002,404.902,126.683" style="stroke: #A80036; stroke-width: 1.0;"/><!--link de.gematik.ti.epa.fdv.authentication.service.provider.provider.api.entities.AuthenticationResult to de.gematik.ti.epa.fdv.authentication.service.provider.provider.api.entities.AuthenticationState--><path d="M397,254.212 C397,275.01 397,300.52 397,318.67 " fill="none" id="de.gematik.ti.epa.fdv.authentication.service.provider.provider.api.entities.AuthenticationResult-de.gematik.ti.epa.fdv.authentication.service.provider.provider.api.entities.AuthenticationState" style="stroke: #A80036; stroke-width: 1.0;"/><polygon fill="#FFFFFF" points="397,241.033,393,247.033,397,253.033,401,247.033,397,241.033" style="stroke: #A80036; stroke-width: 1.0;"/><text fill="#000000" font-family="sans-serif" font-size="13" lengthAdjust="spacingAndGlyphs" textLength="56" x="398" y="285.4951">authState</text><!--
@startuml


  namespace de.gematik.ti.epa.fdv.authentication.service.provider.provider.api {
    interface de.gematik.ti.epa.fdv.authentication.service.provider.provider.api.IAuthenticationResult {
    }
  }


  namespace de.gematik.ti.epa.fdv.authentication.service.provider.provider.api {
    interface de.gematik.ti.epa.fdv.authentication.service.provider.provider.api.IAuthenticator {
    }
  }


  namespace de.gematik.ti.epa.fdv.authentication.service.provider.provider.api {
    interface de.gematik.ti.epa.fdv.authentication.service.provider.provider.api.ICertificateHolder {
    }
  }


  namespace de.gematik.ti.epa.fdv.authentication.service.provider.provider.api {
    namespace entities {
      class de.gematik.ti.epa.fdv.authentication.service.provider.provider.api.entities.AuthenticationResult {
      }
    }
  }


  namespace de.gematik.ti.epa.fdv.authentication.service.provider.provider.api {
    namespace entities {
      enum AuthenticationState {
      }
    }
  }


  namespace de.gematik.ti.epa.fdv.authentication.service.provider.provider.spi {
    interface de.gematik.ti.epa.fdv.authentication.service.provider.provider.spi.IAuthenticationProvider {
    }
  }


  de.gematik.ti.epa.fdv.authentication.service.provider.provider.api.entities.AuthenticationResult .up.|> de.gematik.ti.epa.fdv.authentication.service.provider.provider.api.IAuthenticationResult
  de.gematik.ti.epa.fdv.authentication.service.provider.provider.api.entities.AuthenticationResult o- - de.gematik.ti.epa.fdv.authentication.service.provider.provider.api.entities.AuthenticationState : authState


@enduml

PlantUML version 1.2019.06(Fri May 24 19:10:25 CEST 2019)
(APACHE source distribution)
Java Runtime: OpenJDK Runtime Environment
JVM: OpenJDK 64-Bit Server VM
Java Version: 11.0.4+10-b304.69
Operating System: Windows 7
OS Version: 6.1
Default Encoding: Cp1252
Language: de
Country: DE
--></g></svg>