<?xml version="1.0" encoding="UTF-8" standalone="no"?><svg xmlns="http://www.w3.org/2000/svg" xmlns:xlink="http://www.w3.org/1999/xlink" contentScriptType="application/ecmascript" contentStyleType="text/css" height="164px" preserveAspectRatio="none" style="width:459px;height:164px;" version="1.1" viewBox="0 0 459 164" width="459px" zoomAndPan="magnify"><defs><filter height="300%" id="f1slgqxj1k9iiu" width="300%" x="-1" y="-1"><feGaussianBlur result="blurOut" stdDeviation="2.0"/><feColorMatrix in="blurOut" result="blurOut2" type="matrix" values="0 0 0 0 0 0 0 0 0 0 0 0 0 0 0 0 0 0 .4 0"/><feOffset dx="4.0" dy="4.0" in="blurOut2" result="blurOut3"/><feBlend in="SourceGraphic" in2="blurOut3" mode="normal"/></filter></defs><g><!--cluster de.gematik.ti.epa.fdv.authentication.service.provider.spi--><polygon fill="#FFFFFF" filter="url(#f1slgqxj1k9iiu)" points="22,24,427,24,434,47.6094,437,47.6094,437,152,22,152,22,24" style="stroke: #000000; stroke-width: 1.5;"/><line style="stroke: #000000; stroke-width: 1.5;" x1="22" x2="434" y1="47.6094" y2="47.6094"/><text fill="#000000" font-family="sans-serif" font-size="14" font-weight="bold" lengthAdjust="spacingAndGlyphs" textLength="399" x="26" y="40.5332">de.gematik.ti.epa.fdv.authentication.service.provider.spi</text><!--class de.gematik.ti.epa.fdv.authentication.service.provider.spi.IAuthenticationProvider--><rect fill="#FEFECE" filter="url(#f1slgqxj1k9iiu)" height="75.6719" id="de.gematik.ti.epa.fdv.authentication.service.provider.spi.IAuthenticationProvider" style="stroke: #A80036; stroke-width: 1.5;" width="160" x="149" y="60"/><ellipse cx="164" cy="76" fill="#B4A7E5" rx="11" ry="11" style="stroke: #A80036; stroke-width: 1.0;"/><path d="M165,73 L165,79 L167,79 L167.4844,79 L168,79.625 L168,80 L168,80.375 L167.4844,81 L167,81 L161,81 L160.5156,81 L160,80.375 L160,80 L160,79.625 L160.5156,79 L161,79 L163,79 L163,73 L161,73 L160.5156,73 L160,72.375 L160,72 L160,71.625 L160.5156,71 L161,71 L167,71 L167.4844,71 L168,71.625 L168,72 L168,72.375 L167.4844,73 L167,73 L165,73 Z "/><text fill="#000000" font-family="sans-serif" font-size="12" font-style="italic" lengthAdjust="spacingAndGlyphs" textLength="128" x="178" y="80.9102">IAuthenticationProvider</text><line style="stroke: #A80036; stroke-width: 1.5;" x1="150" x2="308" y1="92" y2="92"/><line style="stroke: #A80036; stroke-width: 1.5;" x1="150" x2="308" y1="100" y2="100"/><ellipse cx="160" cy="112.418" fill="#84BE84" rx="3" ry="3" style="stroke: #038048; stroke-width: 1.0;"/><text fill="#000000" font-family="sans-serif" font-size="11" font-style="italic" lengthAdjust="spacingAndGlyphs" textLength="123" x="169" y="115.4189">getDefaultAuthenticator()</text><ellipse cx="160" cy="126.2539" fill="#84BE84" rx="3" ry="3" style="stroke: #038048; stroke-width: 1.0;"/><text fill="#000000" font-family="sans-serif" font-size="11" font-style="italic" lengthAdjust="spacingAndGlyphs" textLength="80" x="169" y="129.2549">getDescription()</text><!--
@startuml


  namespace de.gematik.ti.epa.fdv.authentication.service.provider.spi {
    interface de.gematik.ti.epa.fdv.authentication.service.provider.spi.IAuthenticationProvider {
        {abstract} + getDefaultAuthenticator()
        {abstract} + getDescription()
    }
  }


@enduml

PlantUML version 1.2019.06(Fri May 24 19:10:25 CEST 2019)
(APACHE source distribution)
Java Runtime: OpenJDK Runtime Environment
JVM: OpenJDK 64-Bit Server VM
Java Version: 11.0.4+10-b304.69
Operating System: Windows 7
OS Version: 6.1
Default Encoding: Cp1252
Language: de
Country: DE
--></g></svg>